<svg width="24" height="24" viewBox="0 0 24 24" fill="none" xmlns="http://www.w3.org/2000/svg">
<path fill-rule="evenodd" clip-rule="evenodd" d="M8.47607 2C8.89029 2 9.22607 2.33579 9.22607 2.75V4.20431C9.53429 4.20238 9.8643 4.20238 10.2181 4.20238L13.7817 4.20238C14.1355 4.20238 14.4655 4.20238 14.7737 4.20431V2.75C14.7737 2.33579 15.1095 2 15.5237 2C15.9379 2 16.2737 2.33579 16.2737 2.75V4.24725C16.3291 4.25097 16.3835 4.255 16.437 4.25937C17.1503 4.31766 17.754 4.43926 18.3052 4.7201C19.1989 5.1755 19.9256 5.90216 20.381 6.79593C20.6618 7.3471 20.7834 7.95073 20.8417 8.66412C20.8486 8.74897 20.8547 8.83631 20.8601 8.92623C20.8851 9.00107 20.8987 9.08117 20.8987 9.16443C20.8987 9.22337 20.8919 9.2807 20.879 9.33572C20.8987 9.89898 20.8987 10.5534 20.8987 11.3194V14.883C20.8987 15.9752 20.8987 16.8406 20.8417 17.5383C20.7834 18.2517 20.6618 18.8553 20.381 19.4065C19.9256 20.3002 19.1989 21.0269 18.3051 21.4823C17.754 21.7631 17.1503 21.8847 16.437 21.943C15.7393 22 14.8738 22 13.7817 22L10.2181 22C9.12592 22 8.26043 22 7.56281 21.943C6.84942 21.8847 6.2458 21.7631 5.69462 21.4823C4.80085 21.0269 4.07419 20.3002 3.6188 19.4065C3.33796 18.8553 3.21635 18.2517 3.15806 17.5383C3.10107 16.8406 3.10107 15.9751 3.10108 14.883L3.10108 11.3194C3.10107 10.5535 3.10107 9.899 3.12073 9.33574C3.10787 9.28072 3.10107 9.22337 3.10107 9.16443C3.10107 9.08116 3.11464 9.00106 3.13969 8.92622C3.14504 8.8363 3.15113 8.74897 3.15806 8.66412C3.21635 7.95073 3.33796 7.3471 3.6188 6.79593C4.0742 5.90216 4.80085 5.1755 5.69462 4.7201C6.2458 4.43926 6.84942 4.31766 7.56281 4.25937C7.61624 4.255 7.67065 4.25097 7.72607 4.24725V2.75C7.72607 2.33579 8.06186 2 8.47607 2ZM4.60729 9.91443C4.60122 10.3278 4.60108 10.8012 4.60108 11.3524L4.60108 14.85C4.60108 15.9825 4.60166 16.7867 4.65308 17.4161C4.70379 18.0367 4.80017 18.421 4.95531 18.7255C5.26689 19.337 5.76408 19.8342 6.37561 20.1458C6.68008 20.3009 7.06433 20.3973 7.68496 20.448C8.31434 20.4994 9.1186 20.5 10.2511 20.5L13.7487 20.5C14.8812 20.5 15.6854 20.4994 16.3148 20.448C16.9354 20.3973 17.3197 20.3009 17.6242 20.1458C18.2357 19.8342 18.7329 19.337 19.0445 18.7255C19.1996 18.421 19.296 18.0367 19.3467 17.4161C19.3981 16.7867 19.3987 15.9825 19.3987 14.85V11.3524C19.3987 10.8012 19.3986 10.3278 19.3925 9.91443H4.60729ZM19.3071 8.41443H4.69262C4.74833 8.00282 4.83379 7.71539 4.95531 7.47691C5.26689 6.86539 5.76408 6.3682 6.37561 6.05661C6.68008 5.90147 7.06433 5.80509 7.68496 5.75439C8.31434 5.70297 9.1186 5.70238 10.2511 5.70238L13.7487 5.70238C14.8812 5.70238 15.6854 5.70297 16.3148 5.75439C16.9354 5.8051 17.3197 5.90147 17.6242 6.05661C18.2357 6.3682 18.7329 6.86539 19.0445 7.47691C19.166 7.71539 19.2514 8.00282 19.3071 8.41443Z" fill="black"/>
</svg>
