<svg width="18" height="18" viewBox="0 0 18 18" fill="none" xmlns="http://www.w3.org/2000/svg">
<path fill-rule="evenodd" clip-rule="evenodd" d="M8.97705 1.91444H9.75C10.0606 1.91444 10.3125 2.1562 10.3125 2.45444C10.3125 2.75267 10.0606 2.99444 9.75 2.99444H9C7.8552 2.99444 7.02709 2.99477 6.37372 3.0411C5.726 3.08702 5.29471 3.17598 4.93747 3.33137C4.06735 3.70984 3.37022 4.37908 2.97597 5.2144C2.81411 5.55735 2.72145 5.97139 2.67361 6.5932C2.62536 7.22045 2.625 8.0154 2.625 9.11441C2.625 10.2135 2.62536 11.0084 2.67361 11.6356C2.72145 12.2575 2.81411 12.6715 2.97597 13.0144C3.37022 13.8498 4.06735 14.519 4.93747 14.8975C5.29471 15.0529 5.726 15.1418 6.37372 15.1878C7.02709 15.2341 7.8552 15.2344 9 15.2344C10.1448 15.2344 10.9729 15.2341 11.6263 15.1878C12.274 15.1418 12.7053 15.0529 13.0625 14.8975C13.9327 14.519 14.6298 13.8498 15.024 13.0144C15.1859 12.6715 15.2786 12.2575 15.3264 11.6356C15.3746 11.0084 15.375 10.2135 15.375 9.11441V8.39441C15.375 8.09618 15.6269 7.85441 15.9375 7.85441C16.2481 7.85441 16.5 8.09618 16.5 8.39441V9.13644C16.5 10.2089 16.5 11.0436 16.4483 11.7152C16.3959 12.3969 16.288 12.9533 16.0487 13.4602C15.5419 14.5341 14.6456 15.3946 13.5269 15.8813C12.9988 16.1109 12.4192 16.2145 11.7092 16.2648C11.0095 16.3144 10.14 16.3144 9.02295 16.3144H8.97705C7.86 16.3144 6.99049 16.3144 6.29086 16.2648C5.58079 16.2145 5.0012 16.1109 4.47317 15.8813C3.35444 15.3946 2.45814 14.5341 1.95125 13.4602C1.712 12.9533 1.60411 12.3969 1.55167 11.7152C1.49999 11.0436 1.5 10.2088 1.5 9.13644V9.09245C1.5 8.02001 1.49999 7.1853 1.55167 6.51365C1.60411 5.83199 1.712 5.27559 1.95125 4.76867C2.45814 3.6947 3.35444 2.83425 4.47317 2.34763C5.0012 2.11796 5.58079 2.01438 6.29086 1.96403C6.99049 1.91443 7.86 1.91443 8.97705 1.91444ZM14.2252 2.74782C14.389 2.95244 14.5927 3.19375 14.8734 3.4632C15.1577 3.73618 15.4119 3.93431 15.6271 4.09346C15.6678 4.12362 15.7105 4.15459 15.7537 4.18602C15.9134 4.30206 16.0819 4.42441 16.1977 4.53599C16.2797 4.61498 16.3777 4.72614 16.4395 4.87367C16.5078 5.03634 16.5176 5.20857 16.4722 5.37689C16.397 5.65612 16.1735 5.89247 15.9723 6.08558L11.139 10.7256C10.9884 10.8783 10.7912 10.9987 10.6139 11.0838C10.4307 11.1717 10.2176 11.2463 10.0161 11.2769L10.0067 11.2782L8.16232 11.5274C8.16202 11.5274 8.1618 11.5275 8.1615 11.5275C7.67925 11.5934 7.20993 11.4698 6.87841 11.1515C6.54683 10.8332 6.41806 10.3826 6.4868 9.91958C6.48677 9.91973 6.48683 9.91937 6.4868 9.91958L6.7478 8.13938C6.77999 7.94361 6.85888 7.74144 6.95023 7.56806C7.04158 7.39469 7.16592 7.21138 7.31586 7.06747L12.1556 2.4214C12.3568 2.22811 12.6026 2.01406 12.8924 1.94149C13.0671 1.89775 13.2463 1.90652 13.416 1.97165C13.57 2.03076 13.6859 2.12481 13.7679 2.20337C13.8839 2.31427 14.0107 2.47568 14.1304 2.62796C14.1627 2.66897 14.1943 2.70931 14.2252 2.74782ZM13.0707 3.07577C13.0383 3.10357 12.9987 3.13931 12.951 3.18507L9.78608 6.22343L12.0119 8.36021L15.1768 5.32191C15.2247 5.27593 15.2621 5.23777 15.291 5.20666C15.2486 5.17429 15.1968 5.13659 15.1319 5.08932C15.0779 5.04996 15.0148 5.00398 14.9404 4.94893C14.7038 4.77392 14.4088 4.54449 14.0779 4.22687C13.7502 3.9123 13.5136 3.63129 13.3333 3.40597C13.2764 3.335 13.229 3.27489 13.1885 3.2235C13.1412 3.16349 13.1033 3.11537 13.0707 3.07577ZM11.2164 9.12391L8.99055 6.98711L8.11132 7.83115C8.06992 7.87097 8.0097 7.9501 7.95405 8.05558C7.8996 8.15897 7.86923 8.25034 7.8597 8.30441L7.60057 10.0717C7.5738 10.2516 7.62968 10.3454 7.67393 10.3879C7.71817 10.4304 7.81583 10.4839 8.00318 10.4582L8.00437 10.4581L9.8442 10.2095C9.90285 10.2 10.0024 10.1698 10.1109 10.1177C10.2245 10.0632 10.2966 10.0094 10.3228 9.9823C10.3275 9.9774 10.3323 9.97258 10.3372 9.9679L11.2164 9.12391Z" fill="black"/>
</svg>
