<svg width="24" height="24" viewBox="0 0 24 24" fill="none" xmlns="http://www.w3.org/2000/svg">
<path fill-rule="evenodd" clip-rule="evenodd" d="M12.6971 4.24037C12.2379 4.13952 11.7622 4.13952 11.303 4.24037C10.8123 4.34812 10.3355 4.62332 9.09314 5.36876L6.24314 7.07876C5.06758 7.78409 4.62545 8.0592 4.30938 8.41865C4.01349 8.75515 3.79039 9.14919 3.65408 9.57604C3.50846 10.032 3.50004 10.5527 3.50004 11.9236V14.85C3.50004 15.9825 3.50062 16.7867 3.55204 17.4161C3.60275 18.0367 3.69913 18.421 3.85427 18.7254C4.16586 19.337 4.66304 19.8342 5.27457 20.1457C5.57904 20.3009 5.96329 20.3973 6.58392 20.448C7.2133 20.4994 8.01756 20.5 9.15004 20.5H14.85C15.9825 20.5 16.7868 20.4994 17.4162 20.448C18.0368 20.3973 18.421 20.3009 18.7255 20.1457C19.337 19.8342 19.8342 19.337 20.1458 18.7254C20.3009 18.421 20.3973 18.0367 20.448 17.4161C20.4995 16.7867 20.5 15.9825 20.5 14.85V11.9236C20.5 10.5527 20.4916 10.032 20.346 9.57604C20.2097 9.14919 19.9866 8.75515 19.6907 8.41865C19.3746 8.0592 18.9325 7.78409 17.7569 7.07876L14.9069 5.36876C13.6646 4.62332 13.1878 4.34812 12.6971 4.24037ZM10.9812 2.77528C11.6524 2.62788 12.3476 2.62788 13.0189 2.77528C13.7793 2.94227 14.4773 3.3613 15.5619 4.01245C15.6004 4.03551 15.6393 4.05887 15.6787 4.08252L18.5287 5.79252C18.5658 5.81481 18.6025 5.83681 18.6388 5.85853C19.6661 6.47463 20.3275 6.87123 20.8172 7.42815C21.2496 7.91995 21.5757 8.49587 21.7749 9.11972C22.0005 9.82616 22.0003 10.5973 22.0001 11.7952C22 11.8375 22 11.8803 22 11.9236V14.883C22 15.9751 22 16.8406 21.9431 17.5382C21.8848 18.2516 21.7632 18.8553 21.4823 19.4064C21.0269 20.3002 20.3003 21.0269 19.4065 21.4823C18.8553 21.7631 18.2517 21.8847 17.5383 21.943C16.8407 22 15.9752 22 14.8831 22H9.11702C8.02488 22 7.15939 22 6.46177 21.943C5.74838 21.8847 5.14476 21.7631 4.59358 21.4823C3.69981 21.0269 2.97316 20.3002 2.51776 19.4064C2.23692 18.8553 2.11531 18.2516 2.05703 17.5382C2.00003 16.8406 2.00003 15.9751 2.00004 14.883V11.9236C2.00004 11.8803 2.00003 11.8375 2.00002 11.7952C1.99974 10.5973 1.99957 9.82616 2.22517 9.11972C2.4244 8.49587 2.75047 7.91995 3.18292 7.42815C3.67262 6.87123 4.33396 6.47463 5.36132 5.85854C5.39755 5.83681 5.43424 5.81481 5.47139 5.79252L8.32139 4.08252C8.3608 4.05887 8.39971 4.03551 8.43813 4.01245C9.52278 3.3613 10.2208 2.94227 10.9812 2.77528Z" fill="black"/>
</svg>
