<svg width="24" height="24" viewBox="0 0 24 24" fill="none" xmlns="http://www.w3.org/2000/svg">
<path fill-rule="evenodd" clip-rule="evenodd" d="M9.73096 4.41999C9.49878 4.03361 9.012 3.91596 8.65296 4.12957L8.64205 4.13606L7.04255 5.05126C6.56385 5.3248 6.3984 5.94566 6.67226 6.41966L6.02286 6.79486L6.67174 6.41876C7.17247 7.28266 7.31311 8.24067 6.85759 9.03113C6.40215 9.82146 5.50312 10.1798 4.50662 10.1798C3.95263 10.1798 3.5 10.6365 3.5 11.1864V12.8136C3.5 13.3635 3.95263 13.8202 4.50662 13.8202C5.50312 13.8202 6.40215 14.1786 6.85759 14.9689C7.31304 15.7592 7.17251 16.7171 6.67196 17.5809C6.39852 18.0548 6.56362 18.6751 7.04214 18.9485L8.65301 19.8704C9.01205 20.084 9.49875 19.9664 9.73093 19.5801L9.83007 19.4088C10.3306 18.5453 11.0917 17.946 12.0035 17.946C12.9159 17.946 13.6748 18.5457 14.1708 19.4104C14.1711 19.4108 14.1713 19.4112 14.1715 19.4116L14.2691 19.58C14.5012 19.9664 14.988 20.0841 15.347 19.8704L15.3579 19.864L16.9574 18.9488C17.4347 18.676 17.603 18.0643 17.3269 17.579C16.8273 16.7157 16.6873 15.7586 17.1424 14.9689C17.5979 14.1786 18.4969 13.8202 19.4934 13.8202C20.0474 13.8202 20.5 13.3635 20.5 12.8136V11.1864C20.5 10.6324 20.0433 10.1798 19.4934 10.1798C18.4969 10.1798 17.5979 9.82146 17.1424 9.03113C16.687 8.24084 16.8275 7.28306 17.3279 6.41931C17.6015 5.94536 17.4364 5.32497 16.9579 5.05149L15.347 4.12967C14.9879 3.91606 14.5012 4.03361 14.269 4.41999L14.1699 4.59118C13.6694 5.45475 12.9083 6.05405 11.9965 6.05405C11.0842 6.05405 10.3254 5.45438 9.8293 4.58987C9.82902 4.58938 9.82874 4.58889 9.82846 4.5884L9.73096 4.41999ZM7.89201 2.83691C8.99181 2.18705 10.3855 2.58639 11.022 3.65627L11.0266 3.66394L11.1282 3.83963L11.1298 3.84241C11.4659 4.42863 11.8069 4.55405 11.9965 4.55405C12.1873 4.55405 12.5312 4.42725 12.872 3.8393L12.978 3.65624C13.6145 2.58637 15.0082 2.18705 16.108 2.83691L17.7021 3.74913C18.9057 4.43722 19.3141 5.98003 18.6265 7.17007L18.626 7.17097C18.2854 7.7586 18.3475 8.11804 18.4421 8.28218C18.5367 8.44643 18.8165 8.6798 19.4934 8.6798C20.8665 8.6798 22 9.79888 22 11.1864V12.8136C22 14.1868 20.8809 15.3202 19.4934 15.3202C18.8165 15.3202 18.5367 15.5536 18.4421 15.7178C18.3475 15.882 18.2854 16.2414 18.626 16.8291L18.6283 16.833C19.3123 18.03 18.907 19.5621 17.7025 20.2507C17.7026 20.2506 17.7023 20.2507 17.7025 20.2507L16.1079 21.1632C15.0081 21.813 13.6145 21.4136 12.978 20.3438L12.9734 20.3361L12.8718 20.1604L12.8702 20.1576C12.5341 19.5714 12.1931 19.446 12.0035 19.446C11.8127 19.446 11.4689 19.5727 11.1282 20.1604L11.022 20.3438C10.3855 21.4136 8.99189 21.813 7.89209 21.1632L6.29794 20.2509C6.29807 20.251 6.2978 20.2508 6.29794 20.2509C5.09429 19.5628 4.68588 18.02 5.37346 16.8299C5.71406 16.2422 5.65253 15.882 5.55795 15.7178C5.4633 15.5536 5.18354 15.3202 4.50662 15.3202C3.11908 15.3202 2 14.1868 2 12.8136V11.1864C2 9.81325 3.11908 8.6798 4.50662 8.6798C5.18354 8.6798 5.4633 8.44643 5.55795 8.28218C5.65253 8.11805 5.71458 7.7586 5.37398 7.17097L5.37346 7.17007C4.68588 5.98003 5.09389 4.43745 6.29753 3.74936L7.89201 2.83691ZM8.475 12C8.475 10.0532 10.0532 8.475 12 8.475C13.9468 8.475 15.525 10.0532 15.525 12C15.525 13.9468 13.9468 15.525 12 15.525C10.0532 15.525 8.475 13.9468 8.475 12ZM12 9.975C10.8816 9.975 9.975 10.8816 9.975 12C9.975 13.1184 10.8816 14.025 12 14.025C13.1184 14.025 14.025 13.1184 14.025 12C14.025 10.8816 13.1184 9.975 12 9.975Z" fill="black"/>
</svg>
