<svg width="18" height="18" viewBox="0 0 18 18" fill="none" xmlns="http://www.w3.org/2000/svg">
<path fill-rule="evenodd" clip-rule="evenodd" d="M9.6 2.715C5.79752 2.715 2.715 5.79752 2.715 9.6C2.715 13.4025 5.79752 16.485 9.6 16.485C13.4025 16.485 16.485 13.4025 16.485 9.6C16.485 5.79752 13.4025 2.715 9.6 2.715ZM1.5 9.6C1.5 5.12649 5.12649 1.5 9.6 1.5C14.0735 1.5 17.7 5.12649 17.7 9.6C17.7 14.0735 14.0735 17.7 9.6 17.7C5.12649 17.7 1.5 14.0735 1.5 9.6ZM9.6 4.9425C9.9355 4.9425 10.2075 5.21449 10.2075 5.55V5.97949C11.3859 5.98974 12.338 6.94817 12.338 8.12896C12.338 8.46446 12.066 8.73646 11.7305 8.73646C11.395 8.73646 11.123 8.46446 11.123 8.12896C11.123 7.6192 10.7148 7.20477 10.2075 7.19459V9.00263H10.229C11.3937 9.00263 12.338 9.94684 12.338 11.1116C12.338 12.2764 11.3937 13.2206 10.229 13.2206H10.2075V13.65C10.2075 13.9855 9.9355 14.2575 9.6 14.2575C9.2645 14.2575 8.9925 13.9855 8.9925 13.65V13.2206H8.97095C7.80622 13.2206 6.862 12.2764 6.862 11.1116C6.862 10.7761 7.13399 10.5041 7.4695 10.5041C7.80501 10.5041 8.07704 10.7761 8.07704 11.1116C8.07704 11.6053 8.47726 12.0056 8.97095 12.0056H8.9925V10.2176H8.98108C7.81076 10.2176 6.862 9.26887 6.862 8.0985C6.862 6.92817 7.81076 5.97941 8.98108 5.97941H8.9925V5.55C8.9925 5.21449 9.2645 4.9425 9.6 4.9425ZM8.9925 7.19441H8.98108C8.4818 7.19441 8.07704 7.5992 8.07704 8.0985C8.07704 8.59787 8.4818 9.00263 8.98108 9.00263H8.9925V7.19441ZM10.2075 10.2176V12.0056H10.229C10.7227 12.0056 11.123 11.6053 11.123 11.1116C11.123 10.6179 10.7227 10.2176 10.229 10.2176H10.2075Z" fill="black"/>
</svg>
