<!-- <svg xmlns="http://www.w3.org/2000/svg" x="0px" y="0px" width="100" height="100" viewBox="0 0 50 50">
<path d="M 21 2 C 19.354545 2 18 3.3545455 18 5 L 18 7 L 10.154297 7 A 1.0001 1.0001 0 0 0 9.984375 6.9863281 A 1.0001 1.0001 0 0 0 9.8398438 7 L 8 7 A 1.0001 1.0001 0 1 0 8 9 L 9 9 L 9 45 C 9 46.645455 10.354545 48 12 48 L 38 48 C 39.645455 48 41 46.645455 41 45 L 41 9 L 42 9 A 1.0001 1.0001 0 1 0 42 7 L 40.167969 7 A 1.0001 1.0001 0 0 0 39.841797 7 L 32 7 L 32 5 C 32 3.3545455 30.645455 2 29 2 L 21 2 z M 21 4 L 29 4 C 29.554545 4 30 4.4454545 30 5 L 30 7 L 20 7 L 20 5 C 20 4.4454545 20.445455 4 21 4 z M 11 9 L 18.832031 9 A 1.0001 1.0001 0 0 0 19.158203 9 L 30.832031 9 A 1.0001 1.0001 0 0 0 31.158203 9 L 39 9 L 39 45 C 39 45.554545 38.554545 46 38 46 L 12 46 C 11.445455 46 11 45.554545 11 45 L 11 9 z M 18.984375 13.986328 A 1.0001 1.0001 0 0 0 18 15 L 18 40 A 1.0001 1.0001 0 1 0 20 40 L 20 15 A 1.0001 1.0001 0 0 0 18.984375 13.986328 z M 24.984375 13.986328 A 1.0001 1.0001 0 0 0 24 15 L 24 40 A 1.0001 1.0001 0 1 0 26 40 L 26 15 A 1.0001 1.0001 0 0 0 24.984375 13.986328 z M 30.984375 13.986328 A 1.0001 1.0001 0 0 0 30 15 L 30 40 A 1.0001 1.0001 0 1 0 32 40 L 32 15 A 1.0001 1.0001 0 0 0 30.984375 13.986328 z"></path>
</svg> -->
<svg xmlns="http://www.w3.org/2000/svg" x="0px" y="0px" width="100" height="100" viewBox="0,0,256,256">
<g fill="#ff1111" fill-rule="nonzero" stroke="none" stroke-width="1" stroke-linecap="butt" stroke-linejoin="miter" stroke-miterlimit="10" stroke-dasharray="" stroke-dashoffset="0" font-family="none" font-weight="none" font-size="none" text-anchor="none" style="mix-blend-mode: normal"><g transform="scale(5.12,5.12)"><path d="M21,2c-1.64545,0 -3,1.35455 -3,3v2h-7.8457c-0.05615,-0.00939 -0.113,-0.01396 -0.16992,-0.01367c-0.04844,0.00105 -0.09675,0.00562 -0.14453,0.01367h-1.83984c-0.36064,-0.0051 -0.69608,0.18438 -0.87789,0.49587c-0.18181,0.3115 -0.18181,0.69676 0,1.00825c0.18181,0.3115 0.51725,0.50097 0.87789,0.49587h1v36c0,1.64545 1.35455,3 3,3h26c1.64545,0 3,-1.35455 3,-3v-36h1c0.36064,0.0051 0.69608,-0.18438 0.87789,-0.49587c0.18181,-0.3115 0.18181,-0.69676 0,-1.00825c-0.18181,-0.3115 -0.51725,-0.50097 -0.87789,-0.49587h-1.83203c-0.10799,-0.01785 -0.21818,-0.01785 -0.32617,0h-7.8418v-2c0,-1.64545 -1.35455,-3 -3,-3zM21,4h8c0.55455,0 1,0.44545 1,1v2h-10v-2c0,-0.55455 0.44545,-1 1,-1zM11,9h7.83203c0.10799,0.01785 0.21818,0.01785 0.32617,0h11.67383c0.10799,0.01785 0.21818,0.01785 0.32617,0h7.8418v36c0,0.55454 -0.44546,1 -1,1h-26c-0.55454,0 -1,-0.44546 -1,-1zM18.98438,13.98633c-0.55152,0.00862 -0.99193,0.46214 -0.98437,1.01367v25c-0.0051,0.36064 0.18438,0.69608 0.49587,0.87789c0.3115,0.18181 0.69676,0.18181 1.00825,0c0.3115,-0.18181 0.50097,-0.51725 0.49587,-0.87789v-25c0.0037,-0.2703 -0.10218,-0.53059 -0.29351,-0.72155c-0.19133,-0.19097 -0.45182,-0.29634 -0.72212,-0.29212zM24.98438,13.98633c-0.55152,0.00862 -0.99193,0.46214 -0.98437,1.01367v25c-0.0051,0.36064 0.18438,0.69608 0.49587,0.87789c0.3115,0.18181 0.69676,0.18181 1.00825,0c0.3115,-0.18181 0.50097,-0.51725 0.49587,-0.87789v-25c0.0037,-0.2703 -0.10218,-0.53059 -0.29351,-0.72155c-0.19133,-0.19097 -0.45182,-0.29634 -0.72212,-0.29212zM30.98438,13.98633c-0.55152,0.00862 -0.99193,0.46214 -0.98437,1.01367v25c-0.0051,0.36064 0.18438,0.69608 0.49587,0.87789c0.3115,0.18181 0.69676,0.18181 1.00825,0c0.3115,-0.18181 0.50097,-0.51725 0.49587,-0.87789v-25c0.0037,-0.2703 -0.10218,-0.53059 -0.29351,-0.72155c-0.19133,-0.19097 -0.45182,-0.29634 -0.72212,-0.29212z"></path></g></g>
</svg>
