<svg width="18" height="18" viewBox="0 0 18 18" fill="none" xmlns="http://www.w3.org/2000/svg">
<path fill-rule="evenodd" clip-rule="evenodd" d="M4.73531 4.73476C4.95497 4.51508 5.31113 4.51508 5.5308 4.73476L9.00005 8.20395L12.4692 4.73476C12.6889 4.51508 13.0451 4.51508 13.2648 4.73476C13.4844 4.95442 13.4844 5.31058 13.2648 5.53025L9.7955 8.99947L13.2652 12.4692C13.4849 12.6889 13.4849 13.045 13.2652 13.2646C13.0455 13.4843 12.6894 13.4843 12.4697 13.2646L9.00005 9.795L5.53031 13.2646C5.31065 13.4843 4.95449 13.4843 4.73482 13.2646C4.51515 13.045 4.51515 12.6889 4.73482 12.4692L8.20452 8.99947L4.73531 5.53025C4.51563 5.31058 4.51563 4.95442 4.73531 4.73476Z" fill="black"/>
</svg>
